<svg width="46" xmlns="http://www.w3.org/2000/svg" height="46" id="screenshot-a27afb5f-9772-8011-8005-20e8075aa101" viewBox="0 0 46 46" xmlns:xlink="http://www.w3.org/1999/xlink" fill="none" version="1.1"><g id="shape-a27afb5f-9772-8011-8005-20e8075aa101" data-testid="idea-svgrepo-com" class="icon-lamp" width="200px" height="200px" rx="0" ry="0" style="fill: rgb(0, 0, 0);"><g id="shape-a27afb5f-9772-8011-8005-20e8076fcf94" data-testid="base-background" style="display: none;"><g class="fills" id="fills-a27afb5f-9772-8011-8005-20e8076fcf94"><rect width="46" height="43.125" x="0" transform="matrix(1.000000, 0.000000, 0.000000, 1.000000, 0.000000, 0.000000)" style="fill: none;" ry="0" fill="none" rx="0" y="2.875"/></g></g><g id="shape-a27afb5f-9772-8011-8005-20e80771f694" data-testid="SVGRepo_bgCarrier" rx="0" ry="0" style="fill: rgb(0, 0, 0);"/><g id="shape-a27afb5f-9772-8011-8005-20e8077225ec" data-testid="SVGRepo_tracerCarrier" rx="0" ry="0" style="fill: rgb(0, 0, 0);"/><g id="shape-a27afb5f-9772-8011-8005-20e8077225ed" data-testid="SVGRepo_iconCarrier" rx="0" ry="0" style="fill: rgb(0, 0, 0);"><g id="shape-a27afb5f-9772-8011-8005-20e807766f59" data-testid="svg-path"><g class="fills" id="fills-a27afb5f-9772-8011-8005-20e807766f59"><path d="M39.860,15.157C39.688,19.367,37.996,23.395,35.063,26.578C34.195,27.489,33.533,28.556,33.117,29.716L33.117,32.969C33.117,34.616,31.699,35.950,29.950,35.950L17.583,35.950C15.834,35.950,14.417,34.616,14.417,32.969L14.417,29.716C14.001,28.556,13.338,27.489,12.470,26.578C9.535,23.396,7.841,19.367,7.667,15.157C7.666,7.946,13.065,1.733,20.573,0.303C28.082,-1.128,35.621,2.620,38.600,9.264C39.440,11.130,39.871,13.137,39.860,15.157ZZM36.693,15.157C36.693,8.437,30.906,2.989,23.767,2.989C16.627,2.989,10.840,8.437,10.840,15.157C10.840,22.571,17.583,25.853,17.583,29.716L17.583,32.969L29.950,32.969L29.950,29.716C29.950,25.853,36.693,22.571,36.693,15.157ZZM31.533,39.449C31.534,39.844,31.368,40.224,31.071,40.505C30.774,40.785,30.371,40.942,29.950,40.942L17.583,40.942C16.709,40.942,16.000,40.275,16.000,39.452C16.000,38.629,16.709,37.961,17.583,37.961L29.950,37.961C30.823,37.961,31.531,38.627,31.533,39.449ZZM29.400,43.408C29.511,43.709,29.406,44.043,29.140,44.240C25.929,46.587,21.437,46.587,18.227,44.240C17.958,44.046,17.851,43.712,17.960,43.410C18.069,43.108,18.371,42.905,18.710,42.906L28.653,42.906C28.991,42.906,29.293,43.108,29.400,43.408ZZ" style="fill: rgb(85, 85, 85);"/></g></g></g></g></svg>