<svg width="46" xmlns="http://www.w3.org/2000/svg" height="46" id="screenshot-a27afb5f-9772-8011-8005-20e84c01ae0d" viewBox="0 0 46 46" xmlns:xlink="http://www.w3.org/1999/xlink" fill="none" version="1.1"><g id="shape-a27afb5f-9772-8011-8005-20e84c01ae0d" data-testid="pencil-svgrepo-com" version="1.1" width="800px" height="800px" rx="0" ry="0" style="fill: rgb(0, 0, 0);"><g id="shape-a27afb5f-9772-8011-8005-20e84c068567" data-testid="base-background" style="display: none;"><g class="fills" id="fills-a27afb5f-9772-8011-8005-20e84c068567"><rect width="45.905459147392094" height="45.938270449082665" x="0.04766082125945559" transform="matrix(1.000000, 0.000000, 0.000000, 1.000000, 0.000000, 0.000000)" style="fill: none;" ry="0" fill="none" rx="0" y="0.03014698998322274"/></g></g><g id="shape-a27afb5f-9772-8011-8005-20e84c09681a" data-testid="svg-path"><g class="fills" id="fills-a27afb5f-9772-8011-8005-20e84c09681a"><path d="M43.275,2.258C41.711,0.759,39.988,0.000,38.148,0.000C35.270,0.000,33.170,1.860,32.596,2.430C31.787,3.231,4.212,30.837,4.212,30.837C4.031,31.018,3.901,31.245,3.833,31.492C3.212,33.792,0.096,43.996,0.065,44.099C-0.096,44.622,0.048,45.192,0.432,45.577C0.709,45.852,1.078,46.000,1.455,46.000C1.604,46.000,1.753,45.977,1.900,45.930C2.004,45.895,12.530,42.491,14.263,41.973C14.491,41.904,14.700,41.781,14.869,41.613C15.964,40.530,41.682,15.079,43.390,13.315C45.156,11.495,46.033,9.597,45.999,7.680C45.963,5.787,45.046,3.964,43.275,2.258ZZM32.138,7.021C32.869,7.198,34.593,7.778,36.353,9.555C38.132,11.351,38.613,13.404,38.703,13.872C33.062,19.488,20.078,32.343,14.960,37.410C14.488,36.308,13.723,34.981,12.494,33.742C10.993,32.229,9.465,31.374,8.288,30.893C13.353,25.823,26.582,12.580,32.138,7.021ZZM6.341,33.315C7.130,33.525,8.767,34.134,10.435,35.816C11.721,37.114,12.327,38.544,12.600,39.416C10.606,40.058,6.239,41.566,3.466,42.461C4.288,39.754,5.677,35.539,6.341,33.315ZZM41.309,11.262C41.251,11.322,41.153,11.420,41.037,11.538C40.584,10.369,39.789,8.868,38.410,7.478C37.003,6.058,35.576,5.221,34.432,4.726C34.530,4.630,34.604,4.554,34.635,4.525C34.798,4.363,36.289,2.937,38.145,2.937C39.214,2.937,40.264,3.425,41.265,4.387C42.453,5.528,43.067,6.654,43.087,7.733C43.107,8.836,42.507,10.023,41.309,11.262ZZ" style="fill: rgb(85, 85, 85);"/></g></g></g></svg>